<?xml version="1.0" encoding="UTF-8"?>
<svg width="1408" height="395" viewBox="0 0 1408 395" version="1.1" xmlns="http://www.w3.org/2000/svg" xmlns:xlink="http://www.w3.org/1999/xlink">
    <title>完整</title>
    <defs>
        <rect id="path-1" x="0" y="0" width="395" height="395"></rect>
        <linearGradient x1="24.1829044%" y1="93.1087748%" x2="88.1581165%" y2="20.0932714%" id="linearGradient-3">
            <stop stop-color="#ED79FF" offset="0%"></stop>
            <stop stop-color="#D87BFD" offset="3%"></stop>
            <stop stop-color="#A182F7" offset="11%"></stop>
            <stop stop-color="#4A8CED" offset="20%"></stop>
            <stop stop-color="#1D91E8" offset="30%"></stop>
            <stop stop-color="#26A4E5" offset="43%"></stop>
            <stop stop-color="#36C6DF" offset="61%"></stop>
            <stop stop-color="#40E18B" offset="100%"></stop>
        </linearGradient>
        <path d="M338.467327,241.627436 C335.568635,229.649448 335.568635,196.899134 338.467327,143.170144 C337.336089,63.7716569 272.649367,0 193.242821,0 C113.836276,0 49.1495535,63.7716569 48.0183155,143.170144 C50.9202836,196.886032 50.9202836,229.705129 48.0183155,241.627436 C43.5671026,259.510897 32.650331,299.218074 17.1939117,316.905013 C-4.6396315,338.355339 -0.777983216,351.689326 2.70044806,358.626536 C6.17887935,365.563746 17.7736503,375.330867 43.1838856,364.423921 C68.5941209,353.516976 83.3823668,346.638722 113.430511,368.865308 C161.809022,401.044897 224.774882,401.044897 273.153393,368.865308 C303.201537,346.638722 317.979957,353.310628 343.400018,364.423921 C368.82008,375.537215 380.405024,365.583399 383.883456,358.626536 C387.361887,351.669673 391.420057,338.433948 369.488253,316.983621 C353.923747,299.316335 342.928366,259.599331 338.467327,241.627436 Z" id="path-4"></path>
        <linearGradient x1="49.995303%" y1="172.625435%" x2="49.995303%" y2="35.8908534%" id="linearGradient-6">
            <stop stop-color="#723DC4" offset="0%"></stop>
            <stop stop-color="#6E50C4" stop-opacity="0.68" offset="32%"></stop>
            <stop stop-color="#6381C4" stop-opacity="0.04" offset="96%"></stop>
            <stop stop-color="#6285C4" stop-opacity="0" offset="100%"></stop>
        </linearGradient>
        <radialGradient cx="50%" cy="49.996334%" fx="50%" fy="49.996334%" r="50%" id="radialGradient-7">
            <stop stop-color="#F1F1F1" stop-opacity="0.6" offset="0%"></stop>
            <stop stop-color="#FDFDFD" stop-opacity="0.2" offset="45%"></stop>
            <stop stop-color="#FFFFFF" stop-opacity="0" offset="100%"></stop>
        </radialGradient>
        <radialGradient cx="47.9890966%" cy="49.8635842%" fx="47.9890966%" fy="49.8635842%" r="57.9020845%" gradientTransform="translate(0.479891,0.498636),scale(0.845934,1.000000),rotate(26.520146),translate(-0.479891,-0.498636)" id="radialGradient-8">
            <stop stop-color="#F1F1F1" stop-opacity="0.8" offset="0%"></stop>
            <stop stop-color="#FDFDFD" stop-opacity="0.4" offset="57%"></stop>
            <stop stop-color="#FFFFFF" stop-opacity="0" offset="100%"></stop>
        </radialGradient>
        <radialGradient cx="50%" cy="49.9955516%" fx="50%" fy="49.9955516%" r="50%" id="radialGradient-9">
            <stop stop-color="#3091F1" offset="0%"></stop>
            <stop stop-color="#3097F1" stop-opacity="0" offset="100%"></stop>
        </radialGradient>
        <linearGradient x1="78.8281502%" y1="15.7968363%" x2="18.7990961%" y2="87.02249%" id="linearGradient-10">
            <stop stop-color="#F1F1F1" offset="8%"></stop>
            <stop stop-color="#F3FBFF" offset="68%"></stop>
            <stop stop-color="#B4DBFC" offset="100%"></stop>
        </linearGradient>
        <linearGradient x1="83.2250897%" y1="11.4168518%" x2="17.2107332%" y2="88.0789609%" id="linearGradient-11">
            <stop stop-color="#484848" offset="0%"></stop>
            <stop stop-color="#191919" offset="100%"></stop>
        </linearGradient>
        <radialGradient cx="57.3335482%" cy="52.9484259%" fx="57.3335482%" fy="52.9484259%" r="65.8563071%" gradientTransform="translate(0.573335,0.529484),scale(1.000000,0.636144),rotate(93.675295),scale(1.000000,0.668593),translate(-0.573335,-0.529484)" id="radialGradient-12">
            <stop stop-color="#FFFFFF" stop-opacity="0.2" offset="0%"></stop>
            <stop stop-color="#FFFFFF" stop-opacity="0.1" offset="63.8382458%"></stop>
            <stop stop-color="#FFFFFF" stop-opacity="0" offset="100%"></stop>
            <stop stop-color="#FFFFFF" stop-opacity="0" offset="100%"></stop>
        </radialGradient>
        <rect id="path-13" x="447" y="48" width="961" height="299"></rect>
    </defs>
    <g id="页面-1" stroke="none" stroke-width="1" fill="none" fill-rule="evenodd">
        <g id="标小智最最最最新版本logo" transform="translate(-119.000000, -125.000000)">
            <g id="完整" transform="translate(119.000000, 125.000000)">
                <g id="body">
                    <mask id="mask-2" fill="white">
                        <use xlink:href="#path-1"></use>
                    </mask>
                    <g id="蒙版"></g>
                    <g id="logo(1)" mask="url(#mask-2)">
                        <g transform="translate(2.500000, 1.000000)">
                            <g id="路径" stroke-width="1" fill="none" fill-rule="evenodd" transform="translate(1.937558, 0.000000)">
                                <mask id="mask-5" fill="white">
                                    <use xlink:href="#path-4"></use>
                                </mask>
                                <use id="蒙版" fill="url(#linearGradient-3)" fill-rule="nonzero" xlink:href="#path-4"></use>
                                <path d="M369.389992,317.003274 C363.111129,309.751629 357.500439,298.834857 352.76427,287.240086 L33.7115473,287.240086 C29.0736389,298.834857 23.472775,309.751629 17.1939117,317.003274 C-4.6396315,338.355339 -0.777983216,351.689326 2.70044806,358.626536 C6.17887935,365.563746 17.7736503,375.330867 43.1838856,364.423921 C68.5941209,353.516976 83.3823668,346.638722 113.430511,368.865308 C161.809022,401.044897 224.774882,401.044897 273.153393,368.865308 C303.201537,346.638722 317.979957,353.310628 343.400018,364.423921 C368.82008,375.537215 380.405024,365.583399 383.883456,358.626536 C387.361887,351.669673 391.321796,338.355339 369.389992,317.003274 Z" fill="url(#linearGradient-6)" fill-rule="nonzero" opacity="0.35" mask="url(#mask-5)"></path>
                            </g>
                            <circle id="椭圆形" fill="url(#radialGradient-7)" fill-rule="nonzero" cx="201.945633" cy="138.149019" r="134.017865"></circle>
                            <path d="M321.175252,139.593452 C300.884403,181.531149 239.618813,193.90218 184.455216,167.106468 C129.291619,140.310756 101.071126,84.7148117 121.361975,42.7771148 C141.652824,0.839417846 202.918415,-11.5217871 258.082011,15.264099 C313.245608,42.0499851 341.466101,97.6655812 321.175252,139.593452 Z" id="路径" fill="url(#radialGradient-8)" fill-rule="nonzero"></path>
                            <circle id="椭圆形" fill="url(#radialGradient-9)" fill-rule="nonzero" cx="183.099217" cy="171.773854" r="110.445106"></circle>
                            <circle id="椭圆形" fill="url(#linearGradient-10)" fill-rule="nonzero" cx="195.175466" cy="144.811099" r="91.3137342"></circle>
                            <circle id="椭圆形" fill="url(#linearGradient-11)" fill-rule="nonzero" cx="195.175466" cy="144.811099" r="57.4923769"></circle>
                            <circle id="椭圆形" fill="#FFFFFF" fill-rule="nonzero" cx="210.641711" cy="121.818079" r="18.8464158"></circle>
                            <ellipse id="椭圆形" fill="url(#radialGradient-12)" fill-rule="nonzero" transform="translate(39.253502, 336.675479) scale(-1, 1) rotate(-50.000000) translate(-39.253502, -336.675479) " cx="39.2535017" cy="336.675479" rx="21.2527149" ry="33.408662"></ellipse>
                            <ellipse id="椭圆形" fill="url(#radialGradient-12)" fill-rule="nonzero" transform="translate(350.740145, 336.675479) rotate(-50.000000) translate(-350.740145, -336.675479) " cx="350.740145" cy="336.675479" rx="21.2527149" ry="33.408662"></ellipse>
                        </g>
                    </g>
                </g>
                <mask id="mask-14" fill="white">
                    <use xlink:href="#path-13"></use>
                </mask>
                <g id="蒙版"></g>
                <path d="M802.707092,293.024152 C798.572849,293.024152 794.39378,291.858284 790.680712,289.42107 C780.549154,282.771236 777.7298,269.170068 784.383625,259.045034 C815.526328,211.643969 821.972834,142.145557 822.033535,141.44921 C823.098147,129.389153 833.722788,120.467324 845.802399,121.513712 C857.868935,122.565699 866.802337,133.178923 865.762006,145.239914 C865.478109,148.523759 858.394704,226.319528 821.070715,283.125944 C816.856159,289.542417 809.850265,293.024152 802.707092,293.024152 L802.707092,293.024152 Z M1063.05796,293.024152 C1055.91385,293.024152 1048.90889,289.542417 1044.6934,283.125944 C1007.13407,225.958286 1002.91205,147.728467 1002.75049,144.425953 C1002.15841,132.325758 1011.49245,122.036438 1023.59914,121.446504 C1035.67034,120.836033 1045.99428,130.178844 1046.58915,142.278105 C1046.66667,143.701603 1050.65523,212.276842 1081.38236,259.045034 C1088.03525,269.171002 1085.21589,282.771236 1075.08434,289.42107 C1071.37127,291.858284 1067.19126,293.024152 1063.05796,293.024152 L1063.05796,293.024152 Z M961.130695,71.7286384 L961.130695,304.892853 C961.130695,326.901524 943.383427,344.938404 921.36557,344.999546 C909.762233,345.029881 898.189714,343.541043 886.977668,340.574567 L883.030199,339.530047 C871.424061,336.459959 864.505951,324.566988 867.57745,312.966184 C870.648948,301.36538 882.547388,294.45045 894.153527,297.520537 L898.100996,298.565057 C902.04006,299.607711 906.044496,300.3778 910.083484,300.873457 C914.111266,301.36818 917.65437,298.187947 917.65437,294.132146 L917.65437,71.7286384 C917.65437,59.7283216 927.387165,50 939.392066,50 C951.397901,50 961.130695,59.7283216 961.130695,71.7286384 L961.130695,71.7286384 Z M1321.74486,262.893611 L1187.86243,262.893611 C1179.353,262.893611 1172.45357,269.788006 1172.45357,278.295387 C1172.45357,286.800901 1179.353,293.696229 1187.86243,293.696229 L1321.74486,293.696229 C1329.17379,293.696229 1335.19539,286.800901 1335.19539,278.295387 C1335.19539,269.788006 1329.17379,262.893611 1321.74486,262.893611 L1321.74486,262.893611 Z M1229.42899,157.576269 C1216.75544,157.576269 1206.48193,167.845053 1206.48193,180.511847 C1206.48193,193.17864 1216.75544,203.446491 1229.42899,203.446491 C1242.10067,203.446491 1252.37418,193.17864 1252.37418,180.511847 C1252.37418,167.845053 1242.10067,157.576269 1229.42899,157.576269 L1229.42899,157.576269 Z M1363.6252,130.513016 C1363.6252,112.727232 1349.14741,98.2560968 1331.35251,98.2560968 C1313.55762,98.2560968 1299.08076,112.727232 1299.08076,130.513016 L1299.08076,131.145889 C1299.08076,148.933539 1313.55762,163.402808 1331.35251,163.402808 C1349.14741,163.402808 1363.6252,148.933539 1363.6252,131.145889 L1363.6252,130.513016 Z M1403.68543,130.513016 L1403.68543,131.145889 C1403.68543,171.076626 1371.30161,203.446491 1331.35158,203.446491 C1291.40341,203.446491 1259.01773,171.076626 1259.01773,131.145889 L1259.01773,130.513016 C1259.01773,90.5832122 1291.40341,58.2124135 1331.35158,58.2124135 C1371.30161,58.2124135 1403.68543,90.5832122 1403.68543,130.513016 L1403.68543,130.513016 Z M1140.9037,201.245437 C1164.97233,197.031885 1186.21041,182.172438 1198.29562,160.385926 C1199.88787,157.516529 1201.28681,154.550987 1202.51672,151.520104 L1234.25896,151.520104 C1244.26352,151.520104 1252.37418,143.414103 1252.37418,133.41415 C1252.37418,123.414197 1244.26352,115.307263 1234.25896,115.307263 L1208.54765,115.307263 L1208.54765,99.3164857 L1241.44696,99.3164857 C1251.45151,99.3164857 1259.56218,91.2095511 1259.56218,81.2095982 C1259.56218,71.2087118 1251.45151,63.1027106 1241.44696,63.1027106 L1153.56324,63.1027106 C1151.64507,56.5172847 1145.82426,51.4057621 1138.42334,50.9437088 C1129.98395,50.4181815 1122.38599,56.1943141 1120.80588,64.4972714 C1120.21847,67.5832272 1119.44056,70.6915855 1118.41424,73.2968192 C1117.18059,76.4247799 1115.31285,79.2391043 1113.00993,81.7220573 C1108.03147,87.0874758 1107.08546,95.0469268 1110.66218,101.431663 L1110.67059,101.446598 C1116.23739,111.383077 1129.92979,113.149147 1137.68558,104.806985 C1139.30585,103.065185 1140.78977,101.217905 1142.19431,99.3164857 L1174.73315,99.3164857 L1174.73315,115.307263 L1126.62482,115.307263 C1116.62027,115.307263 1108.50868,123.414197 1108.50868,133.41415 C1108.50868,143.414103 1116.62027,151.520104 1126.62482,151.520104 L1163.54071,151.520104 C1157.27164,158.998833 1148.87708,164.379187 1139.51784,166.953617 C1137.93959,167.3886 1133.59523,167.742375 1128.85584,168.014006 C1119.85146,168.531132 1112.80635,175.967856 1112.80635,184.983029 C1112.80635,194.646943 1120.86098,202.360899 1130.52186,201.96512 C1135.1137,201.776565 1139.23861,201.536671 1140.9037,201.245437 L1140.9037,201.245437 Z M1348.65059,252.308391 C1348.65059,250.344431 1347.05741,248.751047 1345.09161,248.751047 L1162.55735,248.751047 C1160.59248,248.751047 1159.00023,250.344431 1159.00023,252.308391 L1159.00023,304.28145 C1159.00023,306.245409 1160.59248,307.83786 1162.55735,307.83786 L1345.09161,307.83786 C1347.05741,307.83786 1348.65059,306.245409 1348.65059,304.28145 L1348.65059,252.308391 Z M1387.296,229.691117 L1387.296,326.898724 C1387.296,336.894943 1379.18814,344.999077 1369.18733,344.999077 L1138.46256,344.999077 C1128.46081,344.999077 1120.35389,336.894943 1120.35389,326.898724 L1120.35389,229.691117 C1120.35389,219.693964 1128.46081,211.590763 1138.46256,211.590763 L1369.18733,211.590763 C1379.18814,211.590763 1387.296,219.693964 1387.296,229.691117 L1387.296,229.691117 Z M576.640633,184.950359 C576.640633,171.617088 565.826416,160.807842 552.487015,160.807842 C540.043195,160.807842 529.805176,170.216927 528.485617,182.304053 L528.485617,132.841951 L554.298723,132.841951 C564.970057,132.841951 573.62143,124.196421 573.62143,113.529058 C573.62143,102.862628 564.970057,94.2152309 554.298723,94.2152309 L528.485617,94.2152309 L528.485617,72.4865925 C528.485617,62.4866396 520.374955,54.3806384 510.370404,54.3806384 C500.365853,54.3806384 492.25519,62.4866396 492.25519,72.4865925 L492.25519,94.2152309 L466.441151,94.2152309 C455.769817,94.2152309 447.118443,102.862628 447.118443,113.529058 C447.118443,124.196421 455.769817,132.841951 466.441151,132.841951 L492.118845,132.841951 C481.210308,187.440779 466.384185,241.642895 447.957059,294.248826 C444.900502,302.975566 449.401756,312.534001 458.08955,315.713301 C466.940772,318.950474 476.748276,314.336476 479.862733,305.446384 C484.191221,293.089493 488.316126,280.642991 492.25519,268.129282 L492.25519,324.163742 C492.25519,334.163695 500.365853,342.270629 510.370404,342.270629 C520.374955,342.270629 528.485617,334.163695 528.485617,324.163742 L528.485617,187.596664 C529.805176,199.68379 540.043195,209.091942 552.487015,209.091942 C565.826416,209.091942 576.640633,198.283629 576.640633,184.950359 L576.640633,184.950359 Z M615.668001,185.450683 C606.008048,184.352023 597.211925,191.072798 595.728939,200.678839 C591.608704,227.378983 585.013713,253.719754 576.058832,279.198958 L567.79875,302.699267 C564.482577,312.134488 569.446097,322.47048 578.886591,325.785129 C588.325216,329.098844 598.665027,324.137606 601.9812,314.703318 L610.242215,291.201142 C619.943259,263.594625 627.086432,235.054668 631.547529,206.125466 C633.109894,195.992965 625.859326,186.609083 615.668001,185.450683 L615.668001,185.450683 Z M743.139412,286.102687 C739.83818,258.469101 737.378366,230.447204 735.80106,202.566256 C735.241672,192.671782 726.852716,185.061438 716.947155,185.487087 C706.861357,185.921137 699.057004,194.510661 699.626665,204.584355 C701.245996,233.225124 703.773048,262.010576 707.164865,290.398382 L710.077606,314.781727 C711.264555,324.710738 720.279204,331.799289 730.213715,330.612885 L730.214648,330.612885 C740.148225,329.427415 747.240035,320.415976 746.05402,310.486032 L743.139412,286.102687 Z M612.701096,94.2432342 L722.062896,94.2432342 C732.73423,94.2432342 741.385603,85.5949038 741.385603,74.9294075 C741.385603,64.2620443 732.73423,55.6155808 722.062896,55.6155808 L612.701096,55.6155808 C602.028827,55.6155808 593.377454,64.2620443 593.377454,74.9294075 C593.377454,85.5949038 602.028827,94.2432342 612.701096,94.2432342 L612.701096,94.2432342 Z M728.100366,132.440571 L606.662691,132.440571 C595.990423,132.440571 587.339049,141.087035 587.339049,151.753465 C587.339049,162.420828 595.990423,171.068225 606.662691,171.068225 L648.059288,171.068225 L648.059288,302.966231 C648.059288,305.746952 645.533169,307.839727 642.796929,307.337535 C641.608113,307.11911 640.423032,306.869881 639.244487,306.587982 C639.171645,306.57118 639.085729,306.547844 638.986739,306.521708 C629.869365,304.070492 620.427003,309.246422 617.368579,318.172918 C614.029993,327.918041 619.498736,338.492994 629.390289,341.381994 C630.446496,341.690963 631.302855,341.925256 631.851971,342.050337 C639.606829,343.821075 647.537254,344.70411 655.540522,344.685731 C671.351878,344.646237 684.289715,331.494054 684.289715,315.688098 L684.289715,171.068225 L728.100366,171.068225 C738.772635,171.068225 747.423074,162.420828 747.423074,151.753465 C747.423074,141.087035 738.772635,132.440571 728.100366,132.440571 L728.100366,132.440571 Z" id="Fill-1" fill="#333333"></path>
            </g>
        </g>
    </g>
</svg>