<svg width="100" height="100" viewBox="0 0 100 100" fill="none" xmlns="http://www.w3.org/2000/svg">
<path d="M50 95C74.8528 95 95 74.8528 95 50C95 25.1472 74.8528 5 50 5C25.1472 5 5 25.1472 5 50C5 74.8528 25.1472 95 50 95Z" stroke="#2E7ACC" stroke-opacity="0.47" stroke-width="8"/>
<path d="M50 9C41.891 9 33.964 11.4046 27.2216 15.9097C20.4792 20.4149 15.2241 26.8182 12.121 34.31C9.01776 41.8017 8.20583 50.0455 9.78782 57.9987C11.3698 65.9519 15.2747 73.2574 21.0086 78.9914C26.7426 84.7253 34.0481 88.6302 42.0013 90.2122C49.9545 91.7942 58.1983 90.9822 65.69 87.879C73.1818 84.7758 79.5851 79.5208 84.0903 72.7784C88.5954 66.0359 91 58.109 91 50C91 44.6158 89.9395 39.2843 87.8791 34.31C85.8186 29.3356 82.7986 24.8158 78.9914 21.0086C75.1842 17.2014 70.6644 14.1814 65.69 12.1209C60.7157 10.0605 55.3842 9 50 9ZM37.0589 73.6715C35.2988 73.6765 33.5768 73.1592 32.1108 72.185C30.6449 71.2108 29.501 69.8236 28.8239 68.1989C28.1469 66.5742 27.9671 64.7852 28.3074 63.0583C28.6477 61.3314 29.4927 59.7442 30.7355 58.4979C31.9783 57.2515 33.563 56.4019 35.2889 56.0567C37.0148 55.7114 38.8044 55.886 40.431 56.5584C42.0576 57.2308 43.4482 58.3708 44.4266 59.8339C45.4049 61.297 45.9272 63.0176 45.9272 64.7777C45.9272 67.132 44.9937 69.3904 43.3313 71.0576C41.6689 72.7247 39.4133 73.6647 37.0589 73.6715ZM58.4092 70.2704C56.9434 70.2704 55.5376 69.6881 54.5012 68.6517C53.4647 67.6152 52.8824 66.2094 52.8824 64.7437C52.8824 56.4025 45.6466 49.3538 37.0844 49.3538C35.6186 49.3538 34.2129 48.7715 33.1764 47.735C32.1399 46.6986 31.5577 45.2928 31.5577 43.827C31.5577 42.3612 32.1399 40.9555 33.1764 39.919C34.2129 38.8826 35.6186 38.3003 37.0844 38.3003C51.641 38.3003 63.9359 50.4081 63.9359 64.7437C63.9404 65.4745 63.8 66.1989 63.5226 66.875C63.2453 67.5512 62.8366 68.1656 62.3203 68.6827C61.8039 69.1999 61.1901 69.6095 60.5144 69.8879C59.8387 70.1662 59.1145 70.3078 58.3837 70.3044L58.4092 70.2704ZM75.9332 65.1178H75.4571C74.0665 65.1155 72.7278 64.589 71.7082 63.6435C70.6885 62.6979 70.0628 61.4027 69.9558 60.0162C68.8165 46.6584 58.8003 32.3824 42.5006 32.3824C41.0348 32.3824 39.6291 31.8001 38.5926 30.7637C37.5562 29.7272 36.9739 28.3214 36.9739 26.8557C36.9739 25.3899 37.5562 23.9841 38.5926 22.9477C39.6291 21.9112 41.0348 21.3289 42.5006 21.3289C62.567 21.3289 79.1302 37.5946 80.9753 59.1659C81.0907 60.6226 80.6254 62.0659 79.6808 63.1809C78.7363 64.2959 77.3891 64.9922 75.9332 65.1178Z" fill="#0053A1"/>
</svg>
